<svg xmlns="http://www.w3.org/2000/svg" xmlns:xlink="http://www.w3.org/1999/xlink" width="344" zoomAndPan="magnify" viewBox="0 0 258 68.999997" height="92" preserveAspectRatio="xMidYMid meet" version="1.2"><defs><clipPath id="4087f56aab"><path d="M 0 2.570312 L 39 2.570312 L 39 68.570312 L 0 68.570312 Z M 0 2.570312 "/></clipPath><clipPath id="bd54d6262d"><path d="M 5 9 L 59.984375 9 L 59.984375 24 L 5 24 Z M 5 9 "/></clipPath><clipPath id="d40016d9b8"><path d="M 5 26 L 59.984375 26 L 59.984375 40 L 5 40 Z M 5 26 "/></clipPath><clipPath id="86c6f7c855"><path d="M 5 42 L 59.984375 42 L 59.984375 56 L 5 56 Z M 5 42 "/></clipPath></defs><g id="f8472275eb"><rect x="0" width="258" y="0" height="68.999997" style="fill:#ffffff;fill-opacity:1;stroke:none;"/><g clip-rule="nonzero" clip-path="url(#4087f56aab)"><path style=" stroke:none;fill-rule:evenodd;fill:#203d4a;fill-opacity:1;" d="M 19.46875 61.496094 C 20.964844 61.496094 22.175781 62.707031 22.175781 64.203125 C 22.175781 65.695312 20.964844 66.90625 19.46875 66.90625 C 17.976562 66.90625 16.761719 65.695312 16.761719 64.203125 C 16.761719 62.707031 17.976562 61.496094 19.46875 61.496094 M 2.859375 2.570312 L 36.078125 2.570312 C 37.648438 2.570312 38.933594 3.855469 38.933594 5.425781 L 38.933594 8.359375 L 37.132812 8.359375 L 37.132812 7.082031 C 37.132812 6.503906 36.660156 6.027344 36.078125 6.027344 L 2.859375 6.027344 C 2.28125 6.027344 1.804688 6.5 1.804688 7.082031 L 1.804688 58.941406 C 1.804688 59.519531 2.28125 59.992188 2.859375 59.992188 L 36.078125 59.992188 C 36.65625 59.992188 37.132812 59.519531 37.132812 58.941406 L 37.132812 57.363281 L 38.933594 57.363281 L 38.933594 65.707031 C 38.933594 67.277344 37.648438 68.5625 36.078125 68.5625 L 2.859375 68.5625 C 1.289062 68.5625 0.00390625 67.277344 0.00390625 65.707031 L 0.00390625 5.425781 C 0.00390625 3.855469 1.289062 2.570312 2.859375 2.570312 Z M 2.859375 2.570312 "/></g><g clip-rule="nonzero" clip-path="url(#bd54d6262d)"><path style=" stroke:none;fill-rule:nonzero;fill:#2bbced;fill-opacity:1;" d="M 59.625 11.5625 L 59.625 9.800781 L 12.109375 9.800781 C 10.226562 9.800781 8.515625 10.570312 7.273438 11.808594 C 6.035156 13.050781 5.265625 14.761719 5.265625 16.644531 C 5.265625 18.527344 6.035156 20.238281 7.273438 21.480469 C 8.515625 22.71875 10.226562 23.488281 12.109375 23.488281 L 59.625 23.488281 L 59.625 21.726562 C 58.226562 21.726562 56.957031 21.15625 56.035156 20.234375 C 55.113281 19.3125 54.539062 18.042969 54.539062 16.644531 C 54.539062 15.246094 55.113281 13.976562 56.035156 13.054688 C 56.957031 12.132812 58.226562 11.5625 59.625 11.5625 M 12.109375 11.5625 L 55.050781 11.5625 C 54.960938 11.640625 54.871094 11.722656 54.789062 11.808594 C 53.546875 13.050781 52.777344 14.761719 52.777344 16.644531 C 52.777344 18.527344 53.546875 20.238281 54.789062 21.480469 C 54.871094 21.566406 54.960938 21.648438 55.050781 21.726562 L 12.109375 21.726562 C 10.714844 21.726562 9.441406 21.15625 8.519531 20.234375 C 7.597656 19.3125 7.027344 18.042969 7.027344 16.644531 C 7.027344 15.246094 7.597656 13.976562 8.519531 13.054688 C 9.441406 12.132812 10.714844 11.5625 12.109375 11.5625 Z M 12.109375 11.5625 "/></g><path style=" stroke:none;fill-rule:nonzero;fill:#2bbced;fill-opacity:1;" d="M 53.78125 15.410156 C 54.269531 15.410156 54.664062 15.015625 54.664062 14.53125 C 54.664062 14.042969 54.269531 13.648438 53.78125 13.648438 L 12.261719 13.648438 C 11.773438 13.648438 11.378906 14.042969 11.378906 14.53125 C 11.378906 15.015625 11.773438 15.410156 12.261719 15.410156 Z M 53.78125 15.410156 "/><path style=" stroke:none;fill-rule:nonzero;fill:#2bbced;fill-opacity:1;" d="M 53.78125 19.640625 C 54.269531 19.640625 54.664062 19.246094 54.664062 18.757812 C 54.664062 18.273438 54.269531 17.878906 53.78125 17.878906 L 12.261719 17.878906 C 11.773438 17.878906 11.378906 18.273438 11.378906 18.757812 C 11.378906 19.246094 11.773438 19.640625 12.261719 19.640625 Z M 53.78125 19.640625 "/><g clip-rule="nonzero" clip-path="url(#d40016d9b8)"><path style=" stroke:none;fill-rule:nonzero;fill:#2bbced;fill-opacity:1;" d="M 59.625 27.777344 L 59.625 26.015625 L 12.109375 26.015625 C 10.226562 26.015625 8.515625 26.785156 7.273438 28.023438 C 6.035156 29.265625 5.265625 30.976562 5.265625 32.859375 C 5.265625 34.746094 6.035156 36.457031 7.273438 37.695312 C 8.515625 38.9375 10.226562 39.707031 12.109375 39.707031 L 59.625 39.707031 L 59.625 37.945312 C 58.226562 37.945312 56.957031 37.371094 56.035156 36.449219 C 55.113281 35.527344 54.539062 34.257812 54.539062 32.859375 C 54.539062 31.464844 55.113281 30.191406 56.035156 29.269531 C 56.957031 28.347656 58.226562 27.777344 59.625 27.777344 M 12.109375 27.777344 L 55.050781 27.777344 C 54.960938 27.859375 54.871094 27.941406 54.789062 28.027344 C 53.546875 29.265625 52.777344 30.976562 52.777344 32.859375 C 52.777344 34.746094 53.546875 36.457031 54.789062 37.695312 C 54.871094 37.78125 54.960938 37.863281 55.050781 37.945312 L 12.109375 37.945312 C 10.714844 37.945312 9.441406 37.371094 8.519531 36.449219 C 7.597656 35.527344 7.027344 34.257812 7.027344 32.859375 C 7.027344 31.464844 7.597656 30.191406 8.519531 29.269531 C 9.441406 28.347656 10.714844 27.777344 12.109375 27.777344 Z M 12.109375 27.777344 "/></g><path style=" stroke:none;fill-rule:nonzero;fill:#2bbced;fill-opacity:1;" d="M 53.78125 31.628906 C 54.269531 31.628906 54.664062 31.234375 54.664062 30.746094 C 54.664062 30.261719 54.269531 29.867188 53.78125 29.867188 L 12.261719 29.867188 C 11.773438 29.867188 11.378906 30.261719 11.378906 30.746094 C 11.378906 31.234375 11.773438 31.628906 12.261719 31.628906 Z M 53.78125 31.628906 "/><path style=" stroke:none;fill-rule:nonzero;fill:#2bbced;fill-opacity:1;" d="M 53.78125 35.855469 C 54.269531 35.855469 54.664062 35.460938 54.664062 34.976562 C 54.664062 34.488281 54.269531 34.09375 53.78125 34.09375 L 12.261719 34.09375 C 11.773438 34.09375 11.378906 34.488281 11.378906 34.976562 C 11.378906 35.460938 11.773438 35.855469 12.261719 35.855469 Z M 53.78125 35.855469 "/><g clip-rule="nonzero" clip-path="url(#86c6f7c855)"><path style=" stroke:none;fill-rule:nonzero;fill:#2bbced;fill-opacity:1;" d="M 59.625 43.992188 L 59.625 42.230469 L 12.109375 42.230469 C 10.226562 42.230469 8.515625 43 7.273438 44.242188 C 6.035156 45.480469 5.265625 47.191406 5.265625 49.078125 C 5.265625 50.960938 6.035156 52.671875 7.273438 53.910156 C 8.515625 55.152344 10.226562 55.921875 12.109375 55.921875 L 59.625 55.921875 L 59.625 54.160156 C 58.226562 54.160156 56.957031 53.585938 56.035156 52.667969 C 55.113281 51.746094 54.539062 50.472656 54.539062 49.078125 C 54.539062 47.679688 55.113281 46.410156 56.035156 45.488281 C 56.957031 44.566406 58.226562 43.992188 59.625 43.992188 M 12.109375 43.992188 L 55.050781 43.992188 C 54.960938 44.074219 54.871094 44.15625 54.789062 44.242188 C 53.546875 45.480469 52.777344 47.191406 52.777344 49.078125 C 52.777344 50.960938 53.546875 52.671875 54.789062 53.914062 C 54.871094 53.996094 54.960938 54.078125 55.050781 54.160156 L 12.109375 54.160156 C 10.714844 54.160156 9.441406 53.585938 8.519531 52.667969 C 7.597656 51.746094 7.027344 50.472656 7.027344 49.078125 C 7.027344 47.679688 7.597656 46.410156 8.519531 45.488281 C 9.441406 44.566406 10.714844 43.992188 12.109375 43.992188 Z M 12.109375 43.992188 "/></g><path style=" stroke:none;fill-rule:nonzero;fill:#2bbced;fill-opacity:1;" d="M 53.78125 47.84375 C 54.269531 47.84375 54.664062 47.449219 54.664062 46.960938 C 54.664062 46.476562 54.269531 46.082031 53.78125 46.082031 L 12.261719 46.082031 C 11.773438 46.082031 11.378906 46.476562 11.378906 46.960938 C 11.378906 47.449219 11.773438 47.84375 12.261719 47.84375 Z M 53.78125 47.84375 "/><path style=" stroke:none;fill-rule:nonzero;fill:#2bbced;fill-opacity:1;" d="M 53.78125 52.070312 C 54.269531 52.070312 54.664062 51.675781 54.664062 51.191406 C 54.664062 50.703125 54.269531 50.308594 53.78125 50.308594 L 12.261719 50.308594 C 11.773438 50.308594 11.378906 50.703125 11.378906 51.191406 C 11.378906 51.675781 11.773438 52.070312 12.261719 52.070312 Z M 53.78125 52.070312 "/><g style="fill:#203d4a;fill-opacity:1;"><g transform="translate(64.437862, 39.916814)"><path style="stroke:none" d="M 6.796875 -4.671875 L 16.734375 -4.671875 L 16.734375 0 L 1.609375 0 L 1.609375 -24.21875 L 6.796875 -24.21875 Z M 6.796875 -4.671875 "/></g></g><g style="fill:#203d4a;fill-opacity:1;"><g transform="translate(81.517904, 39.916814)"><path style="stroke:none" d="M 1.640625 -24.21875 L 16.765625 -24.21875 L 16.765625 -19.5 L 6.828125 -19.5 L 6.828125 -15.125 L 15.578125 -15.125 L 15.578125 -10.421875 L 6.828125 -10.421875 L 6.828125 -4.671875 L 16.765625 -4.671875 L 16.765625 0 L 1.640625 0 Z M 1.640625 -24.21875 "/></g></g><g style="fill:#203d4a;fill-opacity:1;"><g transform="translate(99.930187, 39.916814)"><path style="stroke:none" d="M 16.5 -24.21875 L 26.609375 0 L 21 0 L 18.8125 -5.1875 L 8.546875 -5.1875 L 6.390625 0 L 0.75 0 L 10.859375 -24.21875 Z M 16.875 -9.90625 L 13.703125 -17.515625 L 10.515625 -9.90625 Z M 16.875 -9.90625 "/></g></g><g style="fill:#203d4a;fill-opacity:1;"><g transform="translate(127.292402, 39.916814)"><path style="stroke:none" d="M 19.03125 -17.015625 C 19.03125 -16.234375 18.921875 -15.492188 18.703125 -14.796875 C 18.484375 -14.109375 18.179688 -13.472656 17.796875 -12.890625 C 17.410156 -12.304688 16.941406 -11.789062 16.390625 -11.34375 C 15.847656 -10.90625 15.257812 -10.550781 14.625 -10.28125 L 22.640625 0 L 16.59375 0 L 9.125 -9.765625 L 6.796875 -9.765625 L 6.796875 0 L 1.609375 0 L 1.609375 -24.21875 L 12.0625 -24.21875 C 13.007812 -24.21875 13.910156 -24.03125 14.765625 -23.65625 C 15.617188 -23.28125 16.359375 -22.765625 16.984375 -22.109375 C 17.617188 -21.460938 18.117188 -20.703125 18.484375 -19.828125 C 18.847656 -18.953125 19.03125 -18.015625 19.03125 -17.015625 Z M 11.40625 -14.484375 C 12.070312 -14.484375 12.640625 -14.726562 13.109375 -15.21875 C 13.585938 -15.707031 13.828125 -16.304688 13.828125 -17.015625 C 13.828125 -17.691406 13.585938 -18.273438 13.109375 -18.765625 C 12.640625 -19.253906 12.070312 -19.5 11.40625 -19.5 L 6.796875 -19.5 L 6.796875 -14.484375 Z M 11.40625 -14.484375 "/></g></g><g style="fill:#203d4a;fill-opacity:1;"><g transform="translate(150.760376, 39.916814)"><path style="stroke:none" d="M 18.171875 -24.21875 L 23.328125 -24.21875 L 23.328125 0 L 18.40625 0 L 6.765625 -15.8125 L 6.765625 0 L 1.609375 0 L 1.609375 -24.21875 L 6.453125 -24.21875 L 18.171875 -8.296875 Z M 18.171875 -24.21875 "/></g></g><g style="fill:#203d4a;fill-opacity:1;"><g transform="translate(175.697233, 39.916814)"><path style="stroke:none" d=""/></g></g><g style="fill:#203d4a;fill-opacity:1;"><g transform="translate(185.091252, 39.916814)"><path style="stroke:none" d="M 1.640625 -24.21875 L 16.765625 -24.21875 L 16.765625 -19.5 L 6.828125 -19.5 L 6.828125 -15.125 L 15.578125 -15.125 L 15.578125 -10.421875 L 6.828125 -10.421875 L 6.828125 -4.671875 L 16.765625 -4.671875 L 16.765625 0 L 1.640625 0 Z M 1.640625 -24.21875 "/></g></g><g style="fill:#203d4a;fill-opacity:1;"><g transform="translate(203.503535, 39.916814)"><path style="stroke:none" d="M 8.640625 -4.71875 L 20.078125 -4.71875 L 20.078125 0 L 1.4375 0 L 1.4375 -3.453125 L 12.734375 -19.5 L 2.625 -19.5 L 2.625 -24.21875 L 19.359375 -24.21875 L 19.359375 -19.875 Z M 8.640625 -4.71875 "/></g></g><g style="fill:#2bbced;fill-opacity:1;"><g transform="translate(65.3163, 52.342801)"><path style="stroke:none" d="M 4.03125 -4.453125 L 2.421875 -4.453125 L 2.421875 0 L 1.765625 0 L 1.765625 -4.453125 L 0.171875 -4.453125 L 0.171875 -5 L 4.03125 -5 Z M 4.03125 -4.453125 "/></g></g><g style="fill:#2bbced;fill-opacity:1;"><g transform="translate(73.149727, 52.342801)"><path style="stroke:none" d="M 1.28125 0 L 0.625 0 L 0.625 -5 L 1.28125 -5 Z M 1.28125 0 "/></g></g><g style="fill:#2bbced;fill-opacity:1;"><g transform="translate(78.701269, 52.342801)"><path style="stroke:none" d="M 3.40625 -2.3125 L 1.234375 -2.3125 L 1.234375 -0.53125 L 3.75 -0.53125 L 3.75 0 L 0.578125 0 L 0.578125 -5 L 3.71875 -5 L 3.71875 -4.453125 L 1.234375 -4.453125 L 1.234375 -2.84375 L 3.40625 -2.84375 Z M 1.859375 -6.265625 L 2.390625 -6.265625 L 3.375 -5.359375 L 2.703125 -5.359375 L 2.125 -5.90625 L 1.546875 -5.359375 L 0.859375 -5.359375 Z M 3.609375 -6.859375 L 4.296875 -6.859375 L 3.609375 -5.96875 L 3.125 -5.96875 Z M 3.609375 -6.859375 "/></g></g><g style="fill:#2bbced;fill-opacity:1;"><g transform="translate(86.335675, 52.342801)"><path style="stroke:none" d="M 4.421875 0 L 3.765625 0 L 1.25 -3.859375 L 1.25 0 L 0.578125 0 L 0.578125 -5 L 1.25 -5 L 3.765625 -1.125 L 3.765625 -5 L 4.421875 -5 Z M 4.421875 0 "/></g></g><g style="fill:#2bbced;fill-opacity:1;"><g transform="translate(94.985776, 52.342801)"><path style="stroke:none" d="M 4.265625 -0.65625 C 4.097656 -0.414062 3.863281 -0.234375 3.5625 -0.109375 C 3.257812 0.00390625 2.90625 0.0625 2.5 0.0625 C 2.09375 0.0625 1.726562 -0.03125 1.40625 -0.21875 C 1.09375 -0.40625 0.847656 -0.675781 0.671875 -1.03125 C 0.503906 -1.382812 0.421875 -1.796875 0.421875 -2.265625 L 0.421875 -2.6875 C 0.421875 -3.445312 0.59375 -4.03125 0.9375 -4.4375 C 1.289062 -4.851562 1.785156 -5.0625 2.421875 -5.0625 C 2.941406 -5.0625 3.363281 -4.925781 3.6875 -4.65625 C 4.007812 -4.394531 4.203125 -4.019531 4.265625 -3.53125 L 3.609375 -3.53125 C 3.484375 -4.195312 3.09375 -4.53125 2.4375 -4.53125 C 1.988281 -4.53125 1.648438 -4.375 1.421875 -4.0625 C 1.191406 -3.75 1.078125 -3.300781 1.078125 -2.71875 L 1.078125 -2.296875 C 1.078125 -1.742188 1.203125 -1.300781 1.453125 -0.96875 C 1.710938 -0.632812 2.0625 -0.46875 2.5 -0.46875 C 2.75 -0.46875 2.96875 -0.492188 3.15625 -0.546875 C 3.34375 -0.609375 3.492188 -0.703125 3.609375 -0.828125 L 3.609375 -1.953125 L 2.453125 -1.953125 L 2.453125 -2.484375 L 4.265625 -2.484375 Z M 4.265625 -0.65625 "/></g></g><g style="fill:#2bbced;fill-opacity:1;"><g transform="translate(103.412837, 52.342801)"><path style="stroke:none" d=""/></g></g><g style="fill:#2bbced;fill-opacity:1;"><g transform="translate(108.792808, 52.342801)"><path style="stroke:none" d="M 3.34375 -1.296875 L 1.25 -1.296875 L 0.78125 0 L 0.09375 0 L 2 -5 L 2.578125 -5 L 4.5 0 L 3.8125 0 Z M 1.453125 -1.84375 L 3.140625 -1.84375 L 2.296875 -4.1875 Z M 1.453125 -1.84375 "/></g></g><g style="fill:#2bbced;fill-opacity:1;"><g transform="translate(117.017416, 52.342801)"><path style="stroke:none" d="M 4.421875 0 L 3.765625 0 L 1.25 -3.859375 L 1.25 0 L 0.578125 0 L 0.578125 -5 L 1.25 -5 L 3.765625 -1.125 L 3.765625 -5 L 4.421875 -5 Z M 4.421875 0 "/></g></g><g style="fill:#2bbced;fill-opacity:1;"><g transform="translate(125.667518, 52.342801)"><path style="stroke:none" d="M 4.421875 0 L 3.765625 0 L 3.765625 -2.3125 L 1.234375 -2.3125 L 1.234375 0 L 0.578125 0 L 0.578125 -5 L 1.234375 -5 L 1.234375 -2.84375 L 3.765625 -2.84375 L 3.765625 -5 L 4.421875 -5 Z M 4.421875 0 "/></g></g><g style="fill:#2bbced;fill-opacity:1;"><g transform="translate(134.31762, 52.342801)"><path style="stroke:none" d=""/></g></g><g style="fill:#2bbced;fill-opacity:1;"><g transform="translate(139.697591, 52.342801)"><path style="stroke:none" d="M 1.84375 -2.328125 L 1.234375 -1.6875 L 1.234375 0 L 0.578125 0 L 0.578125 -5 L 1.234375 -5 L 1.234375 -2.53125 L 3.453125 -5 L 4.25 -5 L 2.296875 -2.796875 L 4.40625 0 L 3.625 0 Z M 1.84375 -2.328125 "/></g></g><g style="fill:#2bbced;fill-opacity:1;"><g transform="translate(147.743766, 52.342801)"><path style="stroke:none" d="M 4.421875 0 L 3.765625 0 L 3.765625 -2.3125 L 1.234375 -2.3125 L 1.234375 0 L 0.578125 0 L 0.578125 -5 L 1.234375 -5 L 1.234375 -2.84375 L 3.765625 -2.84375 L 3.765625 -5 L 4.421875 -5 Z M 4.421875 0 "/></g></g><g style="fill:#2bbced;fill-opacity:1;"><g transform="translate(156.393867, 52.342801)"><path style="stroke:none" d="M 4.421875 -2.34375 C 4.421875 -1.851562 4.335938 -1.425781 4.171875 -1.0625 C 4.015625 -0.695312 3.785156 -0.414062 3.484375 -0.21875 C 3.179688 -0.03125 2.828125 0.0625 2.421875 0.0625 C 2.023438 0.0625 1.675781 -0.03125 1.375 -0.21875 C 1.070312 -0.414062 0.832031 -0.691406 0.65625 -1.046875 C 0.488281 -1.410156 0.40625 -1.828125 0.40625 -2.296875 L 0.40625 -2.65625 C 0.40625 -3.132812 0.488281 -3.554688 0.65625 -3.921875 C 0.820312 -4.296875 1.054688 -4.578125 1.359375 -4.765625 C 1.671875 -4.960938 2.019531 -5.0625 2.40625 -5.0625 C 2.8125 -5.0625 3.164062 -4.960938 3.46875 -4.765625 C 3.78125 -4.578125 4.015625 -4.300781 4.171875 -3.9375 C 4.335938 -3.570312 4.421875 -3.144531 4.421875 -2.65625 Z M 3.765625 -2.65625 C 3.765625 -3.25 3.644531 -3.703125 3.40625 -4.015625 C 3.175781 -4.335938 2.84375 -4.5 2.40625 -4.5 C 1.988281 -4.5 1.660156 -4.335938 1.421875 -4.015625 C 1.191406 -3.703125 1.070312 -3.265625 1.0625 -2.703125 L 1.0625 -2.34375 C 1.0625 -1.757812 1.179688 -1.300781 1.421875 -0.96875 C 1.660156 -0.644531 1.992188 -0.484375 2.421875 -0.484375 C 2.847656 -0.484375 3.175781 -0.640625 3.40625 -0.953125 C 3.644531 -1.265625 3.765625 -1.710938 3.765625 -2.296875 Z M 3.46875 -5.40625 L 3.46875 -5.375 L 2.9375 -5.375 L 2.421875 -5.953125 L 1.921875 -5.375 L 1.390625 -5.375 L 1.390625 -5.421875 L 2.234375 -6.359375 L 2.625 -6.359375 Z M 3.46875 -5.40625 "/></g></g><g style="fill:#2bbced;fill-opacity:1;"><g transform="translate(164.865536, 52.342801)"><path style="stroke:none" d="M 4.421875 0 L 3.765625 0 L 1.25 -3.859375 L 1.25 0 L 0.578125 0 L 0.578125 -5 L 1.25 -5 L 3.765625 -1.125 L 3.765625 -5 L 4.421875 -5 Z M 4.421875 0 "/></g></g><g style="fill:#2bbced;fill-opacity:1;"><g transform="translate(173.515638, 52.342801)"><path style="stroke:none" d="M 4.265625 -0.65625 C 4.097656 -0.414062 3.863281 -0.234375 3.5625 -0.109375 C 3.257812 0.00390625 2.90625 0.0625 2.5 0.0625 C 2.09375 0.0625 1.726562 -0.03125 1.40625 -0.21875 C 1.09375 -0.40625 0.847656 -0.675781 0.671875 -1.03125 C 0.503906 -1.382812 0.421875 -1.796875 0.421875 -2.265625 L 0.421875 -2.6875 C 0.421875 -3.445312 0.59375 -4.03125 0.9375 -4.4375 C 1.289062 -4.851562 1.785156 -5.0625 2.421875 -5.0625 C 2.941406 -5.0625 3.363281 -4.925781 3.6875 -4.65625 C 4.007812 -4.394531 4.203125 -4.019531 4.265625 -3.53125 L 3.609375 -3.53125 C 3.484375 -4.195312 3.09375 -4.53125 2.4375 -4.53125 C 1.988281 -4.53125 1.648438 -4.375 1.421875 -4.0625 C 1.191406 -3.75 1.078125 -3.300781 1.078125 -2.71875 L 1.078125 -2.296875 C 1.078125 -1.742188 1.203125 -1.300781 1.453125 -0.96875 C 1.710938 -0.632812 2.0625 -0.46875 2.5 -0.46875 C 2.75 -0.46875 2.96875 -0.492188 3.15625 -0.546875 C 3.34375 -0.609375 3.492188 -0.703125 3.609375 -0.828125 L 3.609375 -1.953125 L 2.453125 -1.953125 L 2.453125 -2.484375 L 4.265625 -2.484375 Z M 4.265625 -0.65625 "/></g></g><g style="fill:#2bbced;fill-opacity:1;"><g transform="translate(181.942699, 52.342801)"><path style="stroke:none" d=""/></g></g><g style="fill:#2bbced;fill-opacity:1;"><g transform="translate(187.32267, 52.342801)"><path style="stroke:none" d="M 4.421875 0 L 3.765625 0 L 3.765625 -2.3125 L 1.234375 -2.3125 L 1.234375 0 L 0.578125 0 L 0.578125 -5 L 1.234375 -5 L 1.234375 -2.84375 L 3.765625 -2.84375 L 3.765625 -5 L 4.421875 -5 Z M 4.421875 0 "/></g></g><g style="fill:#2bbced;fill-opacity:1;"><g transform="translate(195.972772, 52.342801)"><path style="stroke:none" d="M 3.40625 -2.3125 L 1.234375 -2.3125 L 1.234375 -0.53125 L 3.75 -0.53125 L 3.75 0 L 0.578125 0 L 0.578125 -5 L 3.71875 -5 L 3.71875 -4.453125 L 1.234375 -4.453125 L 1.234375 -2.84375 L 3.40625 -2.84375 Z M 3.375 -5.34375 L 2.703125 -5.34375 L 2.109375 -5.890625 L 1.53125 -5.34375 L 0.859375 -5.34375 L 1.859375 -6.25 L 2.375 -6.25 Z M 1.109375 -5.953125 L 0.625 -5.953125 L -0.0625 -6.84375 L 0.625 -6.84375 Z M 1.109375 -5.953125 "/></g></g><g style="fill:#2bbced;fill-opacity:1;"><g transform="translate(203.607178, 52.342801)"><path style="stroke:none" d=""/></g></g><g style="fill:#2bbced;fill-opacity:1;"><g transform="translate(208.987149, 52.342801)"><path style="stroke:none" d="M 1.84375 -2.328125 L 1.234375 -1.6875 L 1.234375 0 L 0.578125 0 L 0.578125 -5 L 1.234375 -5 L 1.234375 -2.53125 L 3.453125 -5 L 4.25 -5 L 2.296875 -2.796875 L 4.40625 0 L 3.625 0 Z M 1.84375 -2.328125 "/></g></g><g style="fill:#2bbced;fill-opacity:1;"><g transform="translate(217.033323, 52.342801)"><path style="stroke:none" d="M 4.421875 0 L 3.765625 0 L 3.765625 -2.3125 L 1.234375 -2.3125 L 1.234375 0 L 0.578125 0 L 0.578125 -5 L 1.234375 -5 L 1.234375 -2.84375 L 3.765625 -2.84375 L 3.765625 -5 L 4.421875 -5 Z M 4.421875 0 "/></g></g><g style="fill:#2bbced;fill-opacity:1;"><g transform="translate(225.683434, 52.342801)"><path style="stroke:none" d="M 4.421875 -2.34375 C 4.421875 -1.851562 4.335938 -1.425781 4.171875 -1.0625 C 4.015625 -0.695312 3.785156 -0.414062 3.484375 -0.21875 C 3.179688 -0.03125 2.828125 0.0625 2.421875 0.0625 C 2.023438 0.0625 1.675781 -0.03125 1.375 -0.21875 C 1.070312 -0.414062 0.832031 -0.691406 0.65625 -1.046875 C 0.488281 -1.410156 0.40625 -1.828125 0.40625 -2.296875 L 0.40625 -2.65625 C 0.40625 -3.132812 0.488281 -3.554688 0.65625 -3.921875 C 0.820312 -4.296875 1.054688 -4.578125 1.359375 -4.765625 C 1.671875 -4.960938 2.019531 -5.0625 2.40625 -5.0625 C 2.8125 -5.0625 3.164062 -4.960938 3.46875 -4.765625 C 3.78125 -4.578125 4.015625 -4.300781 4.171875 -3.9375 C 4.335938 -3.570312 4.421875 -3.144531 4.421875 -2.65625 Z M 3.765625 -2.65625 C 3.765625 -3.25 3.644531 -3.703125 3.40625 -4.015625 C 3.175781 -4.335938 2.84375 -4.5 2.40625 -4.5 C 1.988281 -4.5 1.660156 -4.335938 1.421875 -4.015625 C 1.191406 -3.703125 1.070312 -3.265625 1.0625 -2.703125 L 1.0625 -2.34375 C 1.0625 -1.757812 1.179688 -1.300781 1.421875 -0.96875 C 1.660156 -0.644531 1.992188 -0.484375 2.421875 -0.484375 C 2.847656 -0.484375 3.175781 -0.640625 3.40625 -0.953125 C 3.644531 -1.265625 3.765625 -1.710938 3.765625 -2.296875 Z M 2.734375 -6.359375 L 3.515625 -6.359375 L 2.59375 -5.34375 L 2.078125 -5.34375 Z M 2.734375 -6.359375 "/></g></g></g></svg>